# xmcd
#
# Track frame offsets:
#	150
#	15341
#	43468
#	73462
#	108828
#	148520
#	184141
#	214107
#	249915
#	266656
#	298544
#
# Disc length: 4394 seconds
#
# Revision: 1
# Processed by: cddbd v1.5.2PL0 Copyright (c) Steve Scherf et al.
# Submitted via: audiograbber 1.83.01
#
DISCID=a711280b
DTITLE=Various Artist - that's blue! sidetracks vol. 7
DYEAR=2006
DGENRE=blues
TTITLE0=Duke Ellington with Max Roach and Charles Mingus - Fleurette Africaine
TTITLE1=Art Blakey and the Jazz Messengers - Backstage Sally
TTITLE2=Eddie Gale - The Rain
TTITLE3=Herbie Hancock - Maiden Voyage
TTITLE4=Horace Parlan - Home is Africa
TTITLE5=Andrew Hill - Hey Hey
TTITLE6=Lou Donaldson - One Cylinder
TTITLE7=Wayne Shorter - Montezuma
TTITLE8=Jason Moran - Artists ought to be writing
TTITLE9=Bobby Hutcherson - Catta
TTITLE10=Jackie McLean - Soul 
EXTD=
EXTT0=
EXTT1=
EXTT2=
EXTT3=
EXTT4=
EXTT5=
EXTT6=
EXTT7=
EXTT8=
EXTT9=
EXTT10=
PLAYORDER=
